<svg width="512" height="512" viewBox="0 0 512 512" fill="none" xmlns="http://www.w3.org/2000/svg">
<g clip-path="url(#clip0_239_3)">
<rect width="512" height="512" fill="#55AC68"/>
<path d="M104.02 213.508C104.126 253.892 125.555 291.19 160.403 311.607L244.68 360.783V428.619H287.96V312.726L348.547 279.082C366.256 269.234 381.028 254.843 391.298 237.387C401.568 219.91 406.978 200.025 406.978 179.76V158.12H363.698V179.76C363.698 205.289 349.856 228.809 327.561 241.212L287.958 263.19V82.3773H244.678V181.11L236.838 176.63C214.923 164.098 201.42 140.81 201.398 115.599V93.1988H158.118V115.599C158.118 135.612 163.423 155.287 173.461 172.615C183.52 189.923 197.974 204.294 215.346 214.226L244.678 230.942V310.674L182.188 274.22C160.59 261.625 147.318 238.506 147.297 213.504V190.575H104.017L104.02 213.508Z" fill="white"/>
</g>
<defs>
<clipPath id="clip0_239_3">
<rect width="512" height="512" fill="white"/>
</clipPath>
</defs>
</svg>
